<svg viewBox="0 0 184 60" xmlns="http://www.w3.org/2000/svg"><path fill-rule="evenodd" clip-rule="evenodd" d="M165.44 31.22h6.15l5.75 11.54h-4.18l-1.1-1.94h-7.13l-1.1 1.94h-4.18l5.8-11.54Zm-30.02 2.72v8.82h3.6V31.22h-5.87L127 39.77a.97.97 0 0 1-.16.3v-8.85h-3.6v11.54h5.87l6.15-8.55c.08-.07.12-.2.16-.27Zm33.39-.11h-.55l-1.95 4h4.42l-1.92-4Zm-25.76-2.6h3.6v4.03h1.88l4.07-4.04h4.94l-5.84 5.52 6.58 6.06h-5.2l-4.55-4.5h-1.88v4.5h-3.6V31.22Zm-38.05 0h3.6v4.03h7.75v-4.04h3.6v11.54h-3.6v-4.5h-7.75v4.5H105V31.22Zm-18.13-.05 5.33 5.67-5.33 5.9h4.82l3.52-3.88 3.52 3.89h4.82l-5.33-5.9 5.33-5.68h-4.97l-3.37 3.73-3.37-3.73h-4.97ZM72.4 42.76V31.18h12.56v2.8H76v1.63h8.57v2.8H76V40h8.96v2.8H72.4v-.04Zm-16.02-8.59v-2.99h13.86v3H65.1v8.58h-3.6v-8.59h-5.13Z" fill="#2A5275"/><path fill-rule="evenodd" clip-rule="evenodd" d="M156.67 14.06v-4.5h20.71v4.46h-7.67v12.81h-5.36V14.02h-7.68v.04ZM78.26 9.63v17.28h5.36V14.8l7.05 12.11h4.38l6.58-12.11v12.1h4.7l2.07-7.45-1.8-.04 2.08-9.79h-10.8l-4.59 9.67h-.82l-4.58-9.67h-9.63ZM66.59 23c2.59 0 4.07-.04 4.47-.12.39-.07.62-.38.62-.93 0-.66-.27-1.09-.86-1.24-.59-.16-2-.27-4.23-.27-4.46 0-7.28-.31-8.45-.97-1.18-.66-1.77-2.26-1.77-4.78 0-2.37.75-3.85 2.28-4.5 1.17-.51 3.75-.74 7.79-.74 3.6 0 5.87.07 6.8.27 1.8.35 2.9 1.63 3.26 3.88H66.44c-2.43 0-3.8.04-4.2.12-.38.08-.54.43-.54.97 0 .58.31.97.94 1.16.62.2 1.92.28 3.91.28 4.43 0 7.25.35 8.54 1.04 1.29.7 1.92 2.3 1.92 4.78 0 2.3-.7 3.77-2.16 4.43-1.25.54-3.99.81-8.34.81-3.32 0-5.48-.07-6.46-.23-1.52-.23-2.58-.74-3.13-1.6a6.05 6.05 0 0 1-.74-2.36H66.6Zm48.98-13.36h9.4l8.6 17.24h-6.26l-1.64-2.9h-10.61l-1.65 2.9h-6.26l.04-.07 7.13-9.83-3.25-.2 4.5-7.14Zm5.17 3.88h-.83l-2.9 5.98h6.62l-2.9-5.98Zm13.54-3.96h15.58c1.92 0 3.3.35 4.07 1.05.86.74 1.3 2.1 1.3 4 0 1.48-.2 2.6-.55 3.3a3.4 3.4 0 0 1-1.88 1.6c.98.42 1.6.85 1.92 1.24.31.42.47 1.16.47 2.25v3.88h-5.37v-3.1c0-.47-.11-.82-.35-1.13a1.7 1.7 0 0 0-1.37-.62h-8.46v4.81h-5.36V9.55Zm5.32 4.5v3.54h8.62c.59 0 1.02-.11 1.25-.39.24-.23.4-.7.4-1.36 0-.66-.13-1.12-.4-1.4-.27-.27-.66-.38-1.25-.38h-8.62Zm-129.46-.7 6.81-3.88 9.24-5.29 9.24 5.29 9.24 5.28v6.13l-5.36-3.06-13.12-7.54-10.69 6.14-5.36-3.07ZM7.71 17.5v6.3l18.8 10.75 5.24-3.3L7.71 17.51Z" fill="#4878A6"/><path fill-rule="evenodd" clip-rule="evenodd" d="m42.24 37.28-6.81 3.88-9.24 5.29-9.24-5.29-9.24-5.28v-6.13l5.37 3.07 13.11 7.49 10.69-6.14 5.36 3.11ZM30.7 18.8l-4.38-2.53-5.17 2.95 3.29 1.9 18.8 10.76 1.48.86V26.8l-1.49-.86L30.7 18.8Z" fill="#2A5275"/><path fill-rule="evenodd" clip-rule="evenodd" d="m12.68 51.03-.35.9a3.46 3.46 0 0 0-1.64-.44c-.59 0-1.06.16-1.37.43-.35.27-.51.66-.51 1.13 0 .5.2.9.55 1.2.39.31.86.47 1.48.47.7 0 1.3-.2 1.84-.55v1.05a4.3 4.3 0 0 1-1.87.43 3.3 3.3 0 0 1-2.2-.7 2.36 2.36 0 0 1-.86-1.86c0-.74.28-1.32.82-1.79.55-.47 1.26-.7 2.16-.7.62 0 1.29.16 1.95.43Zm1.37.46h3.65v.86h-2.67v.7h2.47l-.35.85h-2.12v.74h2.86v.85h-3.87v-4h.03Zm4.66 0h4.23v.9h-1.6v3.1h-1.02v-3.1h-1.6v-.9Zm5.25 0h1.02v3.15h1.56a.8.8 0 0 0 .47-.12c.12-.07.16-.19.16-.35 0-.15-.04-.27-.16-.35a.84.84 0 0 0-.47-.11h-1.29l.35-.86h.94c.51 0 .9.12 1.18.35.27.24.43.55.43.97 0 .43-.16.74-.43.98a1.8 1.8 0 0 1-1.18.34h-2.58v-4Zm8.1 0h1.18l1.52 2.33 1.5-2.33h1.17v4.04H36.4v-2.56L35 55.11h-.59l-1.4-2.1v2.56h-.99V51.5h.04Zm7.44 4.04h-1.06l2.04-4h1.17l2.04 4h-1.1l-.39-.73h-2.35l-.35.73Zm1.53-3.18-.82 1.63h1.64l-.82-1.63Zm3.68-.86h3.2v.86h-2.18v3.14H44.7v-4Zm4.3 4.04h-1.05l2.03-4h1.18l2.03 4h-1.1l-.38-.73h-2.35l-.36.73Zm1.53-3.18-.82 1.63h1.64l-.82-1.63Zm3.49-.58c.7-.28 1.4-.4 2.03-.4.63 0 1.1.12 1.41.32.35.2.51.5.51.85 0 .4-.2.7-.55.86v.04c.43.2.67.5.67.97 0 .39-.2.7-.55.93-.35.23-.9.31-1.57.31-.58 0-1.17-.12-1.8-.31v-1.01a4.21 4.21 0 0 0 1.84.43c.32 0 .55-.04.75-.12.2-.08.27-.2.27-.35 0-.27-.31-.39-.94-.39h-1.53l.36-.85h1.17c.59 0 .9-.12.9-.39s-.31-.43-.94-.43c-.59 0-1.13.12-1.68.35l-.35-.81Zm5.36-.28h1.02v2.68l2.38-2.68h1.02v4.04H62.8v-2.68l-2.38 2.68H59.4V51.5Zm6.07 0h1.01v1.52h2.4v-1.52h1.01v4.04h-1.02V53.9h-2.39v1.63h-1.01V51.5Zm8.37-.07a3 3 0 0 1 1.92.58c.47.39.75.9.75 1.51 0 .63-.24 1.17-.75 1.56-.47.39-1.13.58-1.92.58a3 3 0 0 1-1.91-.58 1.9 1.9 0 0 1-.7-1.56c0-.62.23-1.12.7-1.51a3 3 0 0 1 1.91-.58Zm-1.17 1.16a1.1 1.1 0 0 0-.43.93c0 .4.16.7.43.94.31.23.7.35 1.17.35s.87-.12 1.18-.35c.31-.24.47-.55.47-.94 0-.38-.16-.66-.47-.89-.31-.23-.7-.35-1.18-.35-.46-.04-.86.08-1.17.31Zm5.2-1.09h2.75c.5 0 .86.08 1.13.28.28.15.4.42.4.73 0 .35-.16.66-.44.86v.04c.4.23.6.54.6.97 0 .39-.13.66-.44.85a2 2 0 0 1-1.17.31h-2.82V51.5Zm1.03.9v2.29h1.84a.7.7 0 0 0 .43-.12.29.29 0 0 0 .15-.27c0-.12-.04-.23-.15-.27a.7.7 0 0 0-.43-.12h-1.57l.35-.85h1.22c.15 0 .23-.04.35-.08.08-.08.11-.15.11-.23 0-.12-.03-.2-.11-.24a.79.79 0 0 0-.35-.07h-1.84v-.04Zm7.28-.9h2.74c.5 0 .86.08 1.13.28.28.15.4.42.4.73 0 .35-.16.66-.44.86v.04c.4.23.6.54.6.97 0 .39-.13.66-.44.85a2 2 0 0 1-1.17.31h-2.82V51.5Zm1.01.9v2.29h1.84a.7.7 0 0 0 .44-.12.29.29 0 0 0 .15-.27c0-.12-.04-.23-.15-.27a.7.7 0 0 0-.44-.12h-1.56l.35-.85h1.21c.16 0 .24-.04.36-.08.08-.08.11-.15.11-.23 0-.12-.03-.2-.11-.24a.79.79 0 0 0-.36-.07h-1.84v-.04Zm12.06-1.36-.35.9a3.46 3.46 0 0 0-1.64-.44c-.6 0-1.06.16-1.37.43-.36.27-.51.66-.51 1.13 0 .5.2.9.54 1.2.4.31.87.47 1.5.47.7 0 1.28-.2 1.83-.55v1.05a4.3 4.3 0 0 1-1.88.43 3.3 3.3 0 0 1-2.19-.7 2.36 2.36 0 0 1-.86-1.86c0-.74.27-1.32.82-1.79.55-.47 1.25-.7 2.16-.7.62 0 1.29.16 1.95.43Zm1.8 4.5H100l2.03-4h1.18l2.03 4h-1.1l-.38-.73h-2.35l-.36.73Zm1.53-3.18-.82 1.63h1.64l-.82-1.63Zm3.68-.86h1.02v1.52h2.39v-1.52h1.01v4.04h-1.05V53.9h-2.35v1.63h-1.02V51.5Zm9.04 0h1.18l-1.72 1.83 1.91 2.17h-1.29l-1.84-2.13 1.76-1.87Zm-3.01 0h1.02v4.04h-1.02V51.5Zm4.81 0h4.23v.9h-1.6v3.1h-1.02v-3.1h-1.6v-.9Zm4.5 2.22v-.78h2.59v.78h-2.58Zm4-3h4.9v4.82h-1.06v-3.88h-2.82v3.88h-1.06v-4.81h.04Zm6.7.78h3.64v.86h-2.67v.7h2.47l-.35.85h-2.12v.74h2.86v.85h-3.88v-4h.04Zm4.65 0h4.23v.9h-1.6v3.1h-1.02v-3.1h-1.6v-.9Zm5.25 0h3.64v.86h-2.66v.7h2.46l-.35.85h-2.11v.74h2.86v.85h-3.88v-4h.04Zm5.28 0h2.59c.5 0 .9.12 1.17.35.28.24.43.59.43.98 0 .42-.15.73-.43.97-.27.23-.66.35-1.17.35h-1.3l.4-.86h1.02c.15 0 .27-.04.35-.12.08-.07.12-.19.12-.34 0-.16-.04-.28-.16-.35-.08-.08-.24-.12-.4-.12h-1.6v3.14h-1.02v-4Zm5.49 0h3.87v.86h-2.86v2.29h1.84c.4 0 .63-.12.63-.39a.35.35 0 0 0-.16-.3.84.84 0 0 0-.47-.13h-1.56l.35-.85h1.17c.51 0 .9.12 1.18.35.27.23.43.54.43.93s-.16.7-.43.93c-.28.24-.67.35-1.18.35h-2.81V51.5Zm7.59 4.04h-1.06l.86-1.51-.5.08-1.73-2.57h1.14l1.33 2.02 1.13-2.02h1.1l-2.27 4Zm3.25-4.04h2.58c.51 0 .9.12 1.18.35.27.24.43.59.43.98 0 .42-.16.73-.43.97a1.8 1.8 0 0 1-1.18.35h-1.29l.4-.86h1.01c.16 0 .27-.04.35-.12.08-.07.12-.19.12-.34 0-.16-.04-.28-.16-.35-.07-.08-.23-.12-.39-.12h-1.6v3.14h-1.02v-4Zm5.48 0h3.21v.86h-2.2v3.14h-1.01v-4Zm4.23 0h3.64v.86h-2.66v.7h2.46l-.35.85h-2.11v.74h2.85v.85h-3.87v-4h.04Z" fill="#4878A6"/></svg>
