<svg xmlns="http://www.w3.org/2000/svg"><style>:root>svg{display: none}:root>svg:target{display:block}</style><svg id="viewed" viewBox="0 0 22 16" fill="none" xmlns="http://www.w3.org/2000/svg"><path d="M20.26 6.96a1.7 1.7 0 0 1 0 2.08C18.76 10.99 15.18 15 11 15s-7.76-4.01-9.26-5.96a1.7 1.7 0 0 1 0-2.08C3.24 5.01 6.82 1 11 1s7.76 4.01 9.26 5.96v0Z" stroke="#838688" stroke-width="2" stroke-linecap="round" stroke-linejoin="round"/><path d="M11 11a3 3 0 1 0 0-6 3 3 0 0 0 0 6Z" stroke="#838688" stroke-width="2" stroke-linecap="round" stroke-linejoin="round"/></svg><svg viewBox="0 0 20 20" fill="#838688" xmlns="http://www.w3.org/2000/svg"><path d="M10 0a10 10 0 0 0-7.35 16.76 10 10 0 0 0 14.7 0A10 10 0 0 0 10 0Zm0 18a8 8 0 0 1-5.55-2.25 6 6 0 0 1 11.1 0A8 8 0 0 1 10 18ZM8 8a2 2 0 1 1 4 0 2 2 0 0 1-4 0Zm8.91 6A8 8 0 0 0 13 10.62a4 4 0 1 0-6 0A8 8 0 0 0 3.09 14a7.92 7.92 0 0 1 1.25-9.66A8 8 0 0 1 16.91 14Z"/></svg><svg id="profile" viewBox="0 0 20 20" fill="#838688" xmlns="http://www.w3.org/2000/svg"><path d="M10 0a10 10 0 0 0 0 19.98 10 10 0 0 0 9.85-8.34A10 10 0 0 0 10 0Zm0 18a8 8 0 0 1-5.55-2.25 6 6 0 0 1 11.1 0A8 8 0 0 1 10 18ZM8 8a2 2 0 1 1 4 0 2 2 0 0 1-4 0Zm8.91 6A8 8 0 0 0 13 10.62a4 4 0 1 0-6 0A8 8 0 0 0 3.09 14a7.92 7.92 0 0 1 1.25-9.66A8 8 0 0 1 16.91 14Z"/></svg><svg id="favorites" viewBox="0 0 21 18" fill="#838688" xmlns="http://www.w3.org/2000/svg"><path d="M19.16 2A6.29 6.29 0 0 0 11 1.36a6.27 6.27 0 0 0-8.16 9.48l6.21 6.22a2.78 2.78 0 0 0 3.9 0l6.21-6.22a6.27 6.27 0 0 0 0-8.84Zm-1.41 7.46-6.21 6.21a.76.76 0 0 1-1.08 0L4.25 9.43a4.29 4.29 0 0 1 0-6 4.27 4.27 0 0 1 6 0 1 1 0 0 0 1.42 0 4.27 4.27 0 0 1 6.08 6v.03Z"/></svg><svg id="calculate" viewBox="0 0 17 20" fill="#838688" xmlns="http://www.w3.org/2000/svg"><path d="M1 10a1 1 0 0 0-1 1v8a1 1 0 1 0 2 0v-8a1 1 0 0 0-1-1ZM6 0a1 1 0 0 0-1 1v18a1 1 0 1 0 2 0V1a1 1 0 0 0-1-1Zm10 14a1 1 0 0 0-1 1v4a1 1 0 0 0 2 0v-4a1 1 0 0 0-1-1Zm-5-8a1 1 0 0 0-1 1v12a1 1 0 0 0 2 0V7a1 1 0 0 0-1-1Z" /></svg><svg id="basket" viewBox="0 0 21 20" fill="#838688" xmlns="http://www.w3.org/2000/svg"><path d="M7.38 19.7c.83 0 1.5-.66 1.5-1.48a1.5 1.5 0 0 0-1.5-1.48c-.83 0-1.5.66-1.5 1.48s.67 1.48 1.5 1.48Zm9.11 0c.83 0 1.5-.66 1.5-1.48a1.5 1.5 0 0 0-1.5-1.48c-.83 0-1.5.66-1.5 1.48s.67 1.48 1.5 1.48Zm4.05-17.56a.67.67 0 0 0-.51-.25H9.07a.66.66 0 0 0 0 1.32h10.08l-1.77 6.94h-10L4.34 1.58a.66.66 0 0 0-.44-.42L1.17.33a.68.68 0 0 0-.84.43.66.66 0 0 0 .44.83l2.4.73 3.05 8.58-1.09.88-.09.09A1.74 1.74 0 0 0 5 14.1a1.83 1.83 0 0 0 1.5.66h11.13c.17 0 .34-.07.47-.2a.66.66 0 0 0-.47-1.12H6.39a.45.45 0 0 1-.38-.22.44.44 0 0 1 0-.44l1.61-1.32h10.29a.67.67 0 0 0 .66-.51L20.7 2.7a.65.65 0 0 0-.15-.56Z" /><path fill-rule="evenodd" clip-rule="evenodd" d="M20.03 1.9a.67.67 0 0 1 .51.24.66.66 0 0 1 .15.56l-2.12 8.25a.66.66 0 0 1-.66.51H7.62l-1.6 1.32a.44.44 0 0 0 .15.6c.07.04.14.06.22.06h11.23c.17 0 .34.07.47.2a.66.66 0 0 1 0 .93.7.7 0 0 1-.47.19H6.5a1.85 1.85 0 0 1-1.51-.66 1.74 1.74 0 0 1 .05-2.23l.09-.09 1.1-.88-3.07-8.58-2.39-.73A.66.66 0 0 1 .65.37a.67.67 0 0 1 .52-.04l2.73.83a.67.67 0 0 1 .44.42l3.04 8.57h10l1.77-6.94H9.07a.66.66 0 0 1 0-1.32h10.96Zm-1.25 1.6H9.06a.96.96 0 0 1 0-1.91h10.97a.98.98 0 0 1 .95 1.16L18.87 11m-.09-7.5-1.64 6.34H7.6L4.62 1.5a.95.95 0 0 0-.64-.63L1.25.04a.98.98 0 0 0-1.2.64.95.95 0 0 0 .63 1.2l2.25.67 2.95 8.24-.95.77-.1.1-.01.01a2.04 2.04 0 0 0-.07 2.61 2.13 2.13 0 0 0 1.75.78h11.12c.25 0 .5-.1.68-.28a.95.95 0 0 0-.68-1.64H6.4a.15.15 0 0 1-.12-.07.14.14 0 0 1-.02-.1l1.47-1.21h10.18a.97.97 0 0 0 .96-.75m-9.69 7.21c0 .98-.8 1.78-1.8 1.78s-1.8-.8-1.8-1.78.8-1.78 1.8-1.78 1.8.8 1.8 1.78Zm9.1 0a1.8 1.8 0 0 1-3.59 0c0-.98.8-1.78 1.8-1.78s1.8.8 1.8 1.78ZM7.39 19.7c.83 0 1.5-.66 1.5-1.48a1.5 1.5 0 0 0-1.5-1.48c-.83 0-1.5.66-1.5 1.48s.67 1.48 1.5 1.48Zm9.1 0c.84 0 1.5-.66 1.5-1.48a1.5 1.5 0 0 0-1.5-1.48c-.82 0-1.49.66-1.49 1.48s.67 1.48 1.5 1.48Z"/></svg><svg id="favorites-no-empty" viewBox="0 0 21 19" fill="#F15152" xmlns="http://www.w3.org/2000/svg"><path d="M19.06 2.4a6.29 6.29 0 0 0-8.16-.64 6.27 6.27 0 0 0-8.16 9.48l6.2 6.22a2.78 2.78 0 0 0 3.9 0l6.22-6.22a6.27 6.27 0 0 0 0-8.84Z"/></svg><svg id="search" viewBox="0 0 24 24" fill="none" xmlns="http://www.w3.org/2000/svg"><path d="M13 19a8 8 0 1 1 0-16 8 8 0 0 1 0 16ZM3 21l4.35-4.35" stroke="#838688" stroke-width="2" stroke-linecap="round" stroke-linejoin="round"/></svg></svg>
