<svg xmlns="http://www.w3.org/2000/svg"><style>:root>svg{display: none}:root>svg:target{display:block}</style><svg id="burger" viewBox="0 0 32 32" fill="#fff" xmlns="http://www.w3.org/2000/svg"><path d="M5 17a1 1 0 1 0 0-2 1 1 0 0 0 0 2Zm21.72-2H10.28c-.7 0-1.28.42-1.28.94v.12c0 .52.57.94 1.28.94h16.44c.7 0 1.28-.42 1.28-.94v-.12c0-.52-.57-.94-1.28-.94Zm.03 6H5.25c-.69 0-1.25.42-1.25.94v.12c0 .52.56.94 1.25.94h21.5c.69 0 1.25-.42 1.25-.94v-.12c0-.52-.56-.94-1.25-.94Zm0-12H5.25C4.56 9 4 9.42 4 9.94v.12c0 .52.56.94 1.25.94h21.5c.69 0 1.25-.42 1.25-.94v-.12c0-.52-.56-.94-1.25-.94Z"/></svg><svg id="hoverboards" viewBox="0 0 32 32" fill="none" xmlns="http://www.w3.org/2000/svg"><rect x=".56" y="9.2" width="4.8" height="13.6" rx="2.4" fill="#0E1821" stroke="#0E1821" stroke-width=".48"/><mask id="a" fill="#fff"><path fill-rule="evenodd" clip-rule="evenodd" d="M5.6 16.64H3.84a1.6 1.6 0 0 1-1.6-1.6V9.06A2.64 2.64 0 0 1 5.6 11.6v5.04Z"/></mask><path fill-rule="evenodd" clip-rule="evenodd" d="M5.6 16.64H3.84a1.6 1.6 0 0 1-1.6-1.6V9.06A2.64 2.64 0 0 1 5.6 11.6v5.04Z" fill="#fff"/><path d="M5.6 16.64v.48h.48v-.48H5.6ZM2.24 9.06l-.13-.46-.35.1v.36h.48Zm3.36 7.1H3.84v.96H5.6v-.96Zm-1.76 0c-.62 0-1.12-.5-1.12-1.12h-.96c0 1.15.93 2.08 2.08 2.08v-.96Zm-1.12-1.12V9.06h-.96v5.98h.96Zm-.35-5.52c.19-.05.39-.08.6-.08v-.96c-.3 0-.59.04-.86.12l.26.92Zm.6-.08c1.18 0 2.15.97 2.15 2.16h.96c0-1.72-1.4-3.12-3.12-3.12v.96Zm2.15 2.16v5.04h.96V11.6h-.96Z" fill="#0E1821" mask="url(#a)"/><rect x="26.49" y="9.2" width="4.8" height="13.6" rx="2.4" fill="#0E1821" stroke="#0E1821" stroke-width=".48"/><path d="M5.36 13.68h9.68c.49 0 .88.4.88.88v2.72c0 .84-.68 1.52-1.52 1.52H5.36v-5.12Z" fill="#4878A6" stroke="#0E1821" stroke-width=".48"/><mask id="b" fill="#fff"><path fill-rule="evenodd" clip-rule="evenodd" d="M26.25 16.64H28c.88 0 1.6-.71 1.6-1.6V9.06a2.64 2.64 0 0 0-3.36 2.54v5.04Z"/></mask><path fill-rule="evenodd" clip-rule="evenodd" d="M26.25 16.64H28c.88 0 1.6-.71 1.6-1.6V9.06a2.64 2.64 0 0 0-3.36 2.54v5.04Z" fill="#fff"/><path d="M26.25 16.64v.48h-.48v-.48h.48Zm3.36-7.58.13-.46.35.1v.36h-.48Zm-3.36 7.1H28v.96h-1.76v-.96Zm1.76 0c.61 0 1.12-.5 1.12-1.12h.96c0 1.15-.94 2.08-2.08 2.08v-.96Zm1.12-1.12V9.06h.96v5.98h-.96Zm.35-5.52a2.16 2.16 0 0 0-.6-.08v-.96c.3 0 .59.04.86.12l-.26.92Zm-.6-.08c-1.19 0-2.15.97-2.15 2.16h-.96c0-1.72 1.4-3.12 3.12-3.12v.96Zm-2.15 2.16v5.04h-.96V11.6h.96Z" fill="#0E1821" mask="url(#b)"/><path d="M26.49 13.68H16.8c-.48 0-.88.4-.88.88v2.72c0 .84.68 1.52 1.52 1.52h9.05v-5.12Z" fill="#4878A6" stroke="#0E1821" stroke-width=".48"/><path stroke="#0E1821" stroke-width=".48" d="M5.6 16.4h20.65"/><rect x="12.32" y="17.12" width=".96" height="3.52" rx=".48" transform="rotate(90 12.32 17.12)" fill="#fff"/><rect x="23.04" y="17.12" width=".96" height="3.52" rx=".48" transform="rotate(90 23.04 17.12)" fill="#fff"/><path stroke="#0E1821" stroke-width=".48" stroke-linecap="round" d="M6.96 14.96h7.2m3.52 0h7.21"/></svg><svg id="electric-scooters" viewBox="0 0 32 32" fill="none" xmlns="http://www.w3.org/2000/svg"><path d="M8.8 25.6a4.32 4.32 0 1 1-8.64 0 4.32 4.32 0 0 1 8.64 0Zm-6.55 0a2.24 2.24 0 1 0 4.47 0 2.24 2.24 0 0 0-4.47 0Z" fill="#0E1821"/><circle cx="4.48" cy="25.61" r="2.16" stroke="#0E1821" stroke-width=".48"/><circle cx="4.48" cy="25.6" r="4.08" stroke="#0E1821" stroke-width=".48"/><path d="M31.85 25.6a4.32 4.32 0 1 1-8.65 0 4.32 4.32 0 0 1 8.65 0Zm-6.56 0a2.24 2.24 0 1 0 4.47 0 2.24 2.24 0 0 0-4.47 0Z" fill="#0E1821"/><circle cx="27.53" cy="25.61" r="2.16" stroke="#0E1821" stroke-width=".48"/><circle cx="27.53" cy="25.6" r="4.08" stroke="#0E1821" stroke-width=".48"/><path d="M22.24 22.56H10.4l.24 3.13h9.04l2.56-3.13Z" fill="#F15152" stroke="#0E1821" stroke-width=".48" stroke-linecap="round" stroke-linejoin="round"/><path d="M4.83 18.65h.02a6.96 6.96 0 0 1 6.52 5.93c.06.41-.28.78-.75.78-.44 0-.83-.37-.93-.86a5.32 5.32 0 0 0-5.2-4.22l-2.8-.04a.8.8 0 1 1 0-1.6h3.03l.11.01Z" fill="#2A5275" stroke="#0E1821" stroke-width=".48"/><path d="m23.3 3.96-.04-.2h-1.9V2.64h2.65c.1 0 .18.06.22.15L25.47 10l-1.12.19-1.06-6.24Z" fill="#4878A6" stroke="#0E1821" stroke-width=".48"/><mask id="a" fill="#fff"><path fill-rule="evenodd" clip-rule="evenodd" d="M26.5 16.36a1.1 1.1 0 0 0-1.55.25l-5.65 7.87H4.64a1.12 1.12 0 1 0 0 2.25h15.2c.34 0 .63-.15.84-.38.05-.04.1-.1.13-.15l5.95-8.3a1.1 1.1 0 0 0-.26-1.54Z"/></mask><path fill-rule="evenodd" clip-rule="evenodd" d="M26.5 16.36a1.1 1.1 0 0 0-1.55.25l-5.65 7.87H4.64a1.12 1.12 0 1 0 0 2.25h15.2c.34 0 .63-.15.84-.38.05-.04.1-.1.13-.15l5.95-8.3a1.1 1.1 0 0 0-.26-1.54Z" fill="#4878A6"/><path d="m24.95 16.61-.4-.28.4.28Zm1.55-.25.28-.4-.28.4Zm-7.2 8.12v.48h.25l.14-.2-.39-.28Zm-14.66 0V24v.48Zm16.04 1.87-.33-.34h-.02l-.01.02.36.32Zm.13-.15-.39-.28.4.28Zm5.95-8.3.39.29-.4-.28Zm-1.42-1c.2-.3.6-.36.88-.15l.56-.78a1.6 1.6 0 0 0-2.22.36l.78.56Zm-5.65 7.86 5.65-7.87-.78-.56-5.65 7.87.78.56Zm-15.05.2H19.3V24H4.64v.96ZM4 25.6c0-.35.29-.64.64-.64V24c-.88 0-1.6.72-1.6 1.6H4Zm.64.64A.64.64 0 0 1 4 25.6h-.96c0 .89.72 1.6 1.6 1.6v-.95Zm15.2 0H4.64v.97h15.2v-.96Zm.48-.2a.64.64 0 0 1-.48.2v.97c.48 0 .9-.21 1.2-.54l-.72-.64Zm.1-.12a.64.64 0 0 1-.07.09l.66.7.2-.23-.79-.56Zm5.95-8.3-5.95 8.3.78.56 5.95-8.3-.78-.55Zm-.15-.87c.28.2.35.6.15.88l.78.56a1.6 1.6 0 0 0-.37-2.22l-.56.78Z" fill="#0E1821" mask="url(#a)"/><rect x="24.03" y="10.09" width="1.74" height="16.45" rx=".87" transform="rotate(-9.62 24.03 10.1)" fill="#4878A6" stroke="#0E1821" stroke-width=".48"/><rect x="21.36" y="2.32" width="1.76" height="4.64" rx=".88" transform="rotate(90 21.36 2.32)" fill="#2A5275" stroke="#0E1821" stroke-width=".48"/><path d="m26 2.8-1.6.88.4 2.48h1.77L26 2.8Z" fill="#4878A6" stroke="#0E1821" stroke-width=".48" stroke-linecap="round" stroke-linejoin="round"/><path fill-rule="evenodd" clip-rule="evenodd" d="m26.47 5.6-.33-2.02a1.04 1.04 0 1 1 .33 2.02Z" fill="#FBB13C"/><path d="m26.47 5.6-.23.04.03.2h.2V5.6Zm-.33-2.02-.08-.23-.2.07.04.2.24-.04Zm.57 1.98-.34-2.02-.47.08.34 2.02.47-.08Zm-.5-1.75a.8.8 0 0 1 .28-.05v-.48c-.15 0-.3.03-.43.07l.16.46Zm.28-.05c.44 0 .8.36.8.8h.48c0-.7-.58-1.28-1.28-1.28v.48Zm.8.8a.8.8 0 0 1-.8.8v.48c.7 0 1.28-.57 1.28-1.28h-.48Zm-.8.8h-.01l-.01.48h.02v-.48Z" fill="#0E1821"/><circle cx="16" cy="15.2" r="5.52" fill="#fff" stroke="#0E1821" stroke-width=".48"/><path d="M14.73 11.39a.26.26 0 0 1 .25-.19h2.05a.26.26 0 0 1 .24.34l-.91 2.72h1.95a.26.26 0 0 1 .23.15.25.25 0 0 1-.03.26l-3.58 4.6a.26.26 0 0 1-.45-.24l.92-2.98h-1.7a.26.26 0 0 1-.25-.33l1.28-4.33Zm.44.32-1.13 3.83h1.7a.26.26 0 0 1 .21.1.25.25 0 0 1 .04.23l-.61 1.98 2.4-3.08H16a.26.26 0 0 1-.25-.21l.01-.12.91-2.73h-1.5Z" fill="#F15152"/></svg><svg id="unicycles" viewBox="0 0 32 32" fill="none" xmlns="http://www.w3.org/2000/svg"><path d="M.96 18.4H10v5.04h-.8a2.08 2.08 0 0 1-2.08-2.08c0-.57-.46-1.04-1.04-1.04H1.76c-.7 0-1.28-.57-1.28-1.28v-.16c0-.26.21-.48.48-.48Zm30.09 0H22v5.04h.8c1.15 0 2.09-.93 2.09-2.08 0-.57.46-1.04 1.04-1.04h4.32c.7 0 1.28-.57 1.28-1.28v-.16a.48.48 0 0 0-.48-.48Z" fill="#2A5275" stroke="#0E1821" stroke-width=".48" stroke-linecap="round" stroke-linejoin="round"/><rect x="13.6" y="16.72" width="4.8" height="13.6" rx="2.4" fill="#0E1821" stroke="#0E1821" stroke-width=".48"/><path d="M10.96 25.6a24.52 24.52 0 0 1-2.24-10.1c0-7.85 3.26-14.22 7.28-14.22 4.02 0 7.28 6.37 7.28 14.23 0 3.86-.96 7.53-2.24 10.1" stroke="#0E1821" stroke-width=".48"/><path d="M8.64 15.52c0-4.8 1.28-9.01 3.2-11.53v21.13a.56.56 0 0 1-1.04.28c-1.33-2.53-2.16-6.02-2.16-9.88Zm11.52 9.6V4c1.93 2.52 3.2 6.73 3.2 11.53 0 3.86-.82 7.35-2.15 9.88a.56.56 0 0 1-1.05-.28Z" fill="#4878A6" stroke="#0E1821" stroke-width=".48"/><path d="M14.81 6.26a.25.25 0 0 1 .25-.18h2.05a.26.26 0 0 1 .25.22l-.01.12-.91 2.72h1.95a.26.26 0 0 1 .25.28c0 .05-.02.1-.05.13l-3.58 4.6a.26.26 0 0 1-.45-.24l.92-2.98h-1.7a.26.26 0 0 1-.25-.33l1.28-4.34Zm.44.33-1.13 3.83h1.7a.26.26 0 0 1 .26.2v.13l-.62 1.98 2.4-3.08h-1.78a.26.26 0 0 1-.25-.21l.01-.12.91-2.73h-1.5Z" fill="#F15152"/></svg><svg id="segways" viewBox="0 0 32 32" fill="none" xmlns="http://www.w3.org/2000/svg"><g clip-path="url(#a)"><path fill="#4878A6" stroke="#070C11" stroke-width=".46" d="M15.29 2.72h1.5v17.5h-1.5z"/><rect x="2.66" y="19.84" width="4.17" height="11.88" rx="2.08" fill="#070C11" stroke="#070C11" stroke-width=".46"/><mask id="b" fill="#fff"><path fill-rule="evenodd" clip-rule="evenodd" d="M7.06 26.34h-1.4c-.86 0-1.55-.7-1.55-1.55v-5.1a2.32 2.32 0 0 1 2.95 2.23v4.42Z"/></mask><path fill-rule="evenodd" clip-rule="evenodd" d="M7.06 26.34h-1.4c-.86 0-1.55-.7-1.55-1.55v-5.1a2.32 2.32 0 0 1 2.95 2.23v4.42Z" fill="#fff"/><path d="M7.06 26.34v.46h.46v-.46h-.46ZM4.1 19.69l-.13-.44-.34.1v.34h.47Zm2.95 6.19h-1.4v.92h1.4v-.92Zm-1.4 0a1.1 1.1 0 0 1-1.09-1.09h-.93c0 1.11.9 2.01 2.01 2.01v-.92Zm-1.09-1.09v-5.1h-.93v5.1h.93Zm-.34-4.65c.16-.05.33-.07.51-.07v-.93c-.26 0-.52.04-.76.1l.25.9Zm.51-.07c1.02 0 1.85.83 1.85 1.85h.93a2.78 2.78 0 0 0-2.78-2.78v.93Zm1.85 1.85v4.42h.93v-4.42h-.93Z" fill="#070C11" mask="url(#b)"/><rect x="25.39" y="19.84" width="4.17" height="11.88" rx="2.08" fill="#070C11" stroke="#070C11" stroke-width=".46"/><mask id="c" fill="#fff"><path fill-rule="evenodd" clip-rule="evenodd" d="M25.16 26.34h1.4c.85 0 1.54-.7 1.54-1.55v-5.1a2.32 2.32 0 0 0-2.94 2.23v4.42Z"/></mask><path fill-rule="evenodd" clip-rule="evenodd" d="M25.16 26.34h1.4c.85 0 1.54-.7 1.54-1.55v-5.1a2.32 2.32 0 0 0-2.94 2.23v4.42Z" fill="#fff"/><path d="M25.16 26.34v.46h-.47v-.46h.47Zm2.94-6.65.13-.45.34.1v.35h-.47Zm-2.94 6.19h1.4v.92h-1.4v-.92Zm1.4 0c.6 0 1.08-.49 1.08-1.09h.93c0 1.11-.9 2.01-2.01 2.01v-.92Zm1.08-1.09v-5.1h.93v5.1h-.93Zm.34-4.65a1.85 1.85 0 0 0-.5-.07v-.93c.25 0 .5.04.75.1l-.25.9Zm-.5-.07c-1.03 0-1.86.83-1.86 1.85h-.93a2.78 2.78 0 0 1 2.78-2.78v.93Zm-1.86 1.85v4.42h-.93v-4.42h.93Z" fill="#070C11" mask="url(#c)"/><path stroke="#070C11" stroke-width=".46" d="M6.63 28.21H25.3"/><mask id="d" fill="#fff"><path fill-rule="evenodd" clip-rule="evenodd" d="M16.04 19.74a2.1 2.1 0 0 0-2.1 2.1v1.7h-7.3v2.8h18.94v-2.8h-7.44v-1.7a2.1 2.1 0 0 0-2.1-2.1Z"/></mask><path fill-rule="evenodd" clip-rule="evenodd" d="M16.04 19.74a2.1 2.1 0 0 0-2.1 2.1v1.7h-7.3v2.8h18.94v-2.8h-7.44v-1.7a2.1 2.1 0 0 0-2.1-2.1Z" fill="#2A5275"/><path d="M13.93 23.53V24h.46v-.47h-.46Zm-7.3 0v-.46h-.46v.46h.46Zm0 2.81h-.46v.46h.46v-.46Zm18.95 0v.46h.46v-.46h-.46Zm0-2.8h.46v-.47h-.46v.46Zm-7.44 0h-.46V24h.46v-.47Zm-3.75-1.7c0-.9.74-1.63 1.65-1.63v-.93a2.57 2.57 0 0 0-2.57 2.57h.92Zm0 1.7v-1.7h-.92v1.7h.92ZM6.63 24h7.3v-.93h-7.3V24Zm.47 2.34v-2.8h-.93v2.8h.93Zm18.48-.46H6.63v.92h18.95v-.92Zm-.47-2.35v2.81h.93v-2.8h-.93Zm-6.97.47h7.44v-.93h-7.44V24Zm-.46-2.15v1.68h.92v-1.68h-.92Zm-1.64-1.64c.9 0 1.64.73 1.64 1.64h.92a2.57 2.57 0 0 0-2.56-2.57v.93Z" fill="#070C11" mask="url(#d)"/><rect x="9.11" y=".89" width="13.85" height="1.08" rx=".54" fill="#4878A6" stroke="#070C11" stroke-width=".46"/><rect x="13.46" y=".19" width="5.15" height="2.48" rx="1.24" fill="#F15152" stroke="#070C11" stroke-width=".46"/><circle cx="15.9" cy="11.33" r="1.73" fill="#F15152" stroke="#070C11" stroke-width=".46"/><path fill="#fff" stroke="#070C11" stroke-width=".46" d="M6.83 26.05h18.55v2.16H6.83z"/></g><defs><clipPath id="a"><path fill="#fff" d="M0 0h32v32H0z"/></clipPath></defs></svg><svg id="scooters" viewBox="0 0 32 32" fill="none" xmlns="http://www.w3.org/2000/svg"><path d="M24.69 23.22h-8.16v-2.53h4.16c1.06 0 1.92-.86 1.92-1.92V9.12h2.08v14.1Z" fill="#4878A6" stroke="#0E1821" stroke-width=".48" stroke-linecap="round" stroke-linejoin="round"/><path d="M30.84 20.68c-.64-3.77-4.3-4.79-6.15-4.8v5.48h5.55a.6.6 0 0 0 .6-.68Z" fill="#4878A6" stroke="#0E1821" stroke-width=".48" stroke-linecap="round" stroke-linejoin="round"/><path d="M12.97 23.88a4 4 0 1 1-8.02 0 4 4 0 0 1 8.02 0Zm-6.08 0a2.07 2.07 0 1 0 4.14 0 2.07 2.07 0 0 0-4.14 0Z" fill="#0E1821"/><circle cx="8.96" cy="23.88" r="1.99" fill="#fff" stroke="#0E1821" stroke-width=".48"/><circle cx="8.96" cy="23.88" r="3.77" stroke="#0E1821" stroke-width=".48"/><path d="M30.77 23.88a4 4 0 1 1-8 0 4 4 0 0 1 8 0Zm-6.08 0a2.07 2.07 0 1 0 4.15 0 2.07 2.07 0 0 0-4.15 0Z" fill="#0E1821"/><circle cx="26.77" cy="23.88" r="1.99" fill="#fff" stroke="#0E1821" stroke-width=".48"/><circle cx="26.77" cy="23.88" r="3.77" stroke="#0E1821" stroke-width=".48"/><path stroke="#0E1821" stroke-width=".48" stroke-linecap="round" d="M1.04 27.65h30.09"/><circle cx="2.28" cy="16.91" r="1.24" fill="#FBB13C" stroke="#0E1821" stroke-width=".48"/><path d="M2.23 18.86a5.12 5.12 0 0 1 5.12-5.12h9.24v9.46H2.79a.56.56 0 0 1-.56-.56v-3.78Z" fill="#2A5275" stroke="#0E1821" stroke-width=".48"/><path d="M3.71 20.84a2.8 2.8 0 0 1 2.8-2.8h6.79c.75 0 1.36.6 1.36 1.36v3.8H3.7v-2.36Z" fill="#4878A6" stroke="#0E1821" stroke-width=".48"/><path d="M3.41 12.6c0-.6.5-1.09 1.1-1.09h11.72a1.1 1.1 0 1 1 0 2.2H4.51c-.6 0-1.1-.5-1.1-1.1Z" fill="#F15152" stroke="#0E1821" stroke-width=".48"/><path d="M20.18 6.67a2.43 2.43 0 0 1 2.43-2.43h3.62c.57 0 1.04.47 1.04 1.04v2.78c0 .58-.47 1.04-1.04 1.04H22.6a2.43 2.43 0 0 1-2.43-2.43Z" fill="#4878A6" stroke="#0E1821" stroke-width=".48"/><rect x="17.36" y="6.02" width="6.49" height="1.75" rx=".87" fill="#2A5275" stroke="#0E1821" stroke-width=".48"/><path d="m28.88 4.98-1.6.57v2.33l1.61.26V4.98Z" fill="#4878A6" stroke="#0E1821" stroke-width=".48" stroke-linecap="round" stroke-linejoin="round"/><circle cx="29.06" cy="6.67" r=".96" transform="rotate(9.3 29.06 6.67)" fill="#FBB13C" stroke="#0E1821" stroke-width=".48"/></svg><svg id="electric-bikes" viewBox="0 0 32 32" fill="none" xmlns="http://www.w3.org/2000/svg"><path fill-rule="evenodd" clip-rule="evenodd" d="m7.48 24.63 7.2-6.82v-3.38h1.12v3H23l-.3-3.22c-.08-1.28.26-2.22 3.14-2.7l.23 1.12c-.63.03-1.9.36-2.03.9-.12.54.7 7.58 1.13 11.02l-1.13.45-.82-6-6.3 5.85-.45-1.12 5.47-5.17H15.8v7.57H6.43l1.05-1.5Zm7.2-5.17v5.69H8.44l6.22-5.7Z" fill="#4878A6" stroke="#0E1821" stroke-width=".48" stroke-linecap="round" stroke-linejoin="round"/><circle cx="7.1" cy="25.9" r="5.38" stroke="#0E1821" stroke-width=".48"/><path d="M12.42 25.9a5.32 5.32 0 1 1-10.64 0 5.32 5.32 0 0 1 10.64 0Zm-9.21 0a3.9 3.9 0 1 0 7.78 0 3.9 3.9 0 0 0-7.78 0Z" fill="#0E1821"/><circle cx="7.1" cy="25.9" r="5.38" stroke="#0E1821" stroke-width=".48"/><circle cx="7.1" cy="25.9" r="3.73" stroke="#0E1821" stroke-width=".48"/><circle cx="7.1" cy="25.9" r="1.33" fill="#F15152" stroke="#0E1821" stroke-width=".48"/><path d="M30.27 25.9a5.32 5.32 0 1 1-10.65 0 5.32 5.32 0 0 1 10.65 0Zm-9.22 0a3.9 3.9 0 1 0 7.79 0 3.9 3.9 0 0 0-7.79 0Z" fill="#0E1821"/><circle cx="24.94" cy="25.9" r="5.38" stroke="#0E1821" stroke-width=".48"/><circle cx="24.94" cy="25.9" r="3.73" stroke="#0E1821" stroke-width=".48"/><circle cx="24.94" cy="25.9" r="1.33" fill="#F15152" stroke="#0E1821" stroke-width=".48"/><circle cx="15.27" cy="25.38" r="1.86" fill="#2A5275" stroke="#0E1821" stroke-width=".48"/><path stroke="#0E1821" stroke-width=".32" stroke-linecap="round" d="M15.28 25.39v3.28"/><path stroke="#0E1821" stroke-width=".48" stroke-linecap="round" d="M15.93 28.62h-1.32"/><circle cx="26.97" cy="11.73" r="1.26" fill="#F15152" stroke="#0E1821" stroke-width=".48"/><path d="M5.68 9.79v5.17c0 .62.5 1.12 1.12 1.12h8.02" stroke="#0E1821" stroke-width=".48"/><circle cx="19.77" cy="6.04" r="5.16" fill="#fff" stroke="#0E1821" stroke-width=".48"/><path d="M18.58 2.46a.24.24 0 0 1 .23-.17h1.92a.24.24 0 0 1 .24.2l-.01.11-.86 2.56h1.83a.24.24 0 0 1 .24.26c0 .04-.02.09-.05.12l-3.36 4.3a.24.24 0 0 1-.42-.21l.87-2.8h-1.6a.24.24 0 0 1-.23-.2v-.1l1.2-4.07Zm.41.3-1.06 3.6h1.6a.24.24 0 0 1 .23.3l-.57 1.86 2.25-2.89h-1.67a.24.24 0 0 1-.24-.2l.01-.11.86-2.55H19Z" fill="#F15152"/><path d="M5.02 8.83h1.32v.63c0 .13-.11.24-.24.24h-.84a.24.24 0 0 1-.24-.24v-.63Zm-.75-2.1h2.82v1.83c0 .13-.11.24-.24.24H4.5a.24.24 0 0 1-.24-.24V6.73Z" fill="#F15152" stroke="#0E1821" stroke-width=".48"/><path stroke="#0E1821" stroke-width=".48" stroke-linecap="round" d="M4.84 6.4v-.87m1.65.87v-.87"/><path d="M18.2 14.36h-5.55c-.6-.08-.73-.27-.9-.6-.15-.3-.08-.98.07-1.28.18-.36.6-.6.9-.67.68-.15 1.43 0 2.03.3.47.24.85.87 1.27.97.3.08 2.1.08 2.4.23.3.15.38.85-.22 1.05Z" fill="#fff" stroke="#0E1821" stroke-width=".48" stroke-linecap="round" stroke-linejoin="round"/></svg><svg id="electric-skateboards" viewBox="0 0 32 32" fill="none" xmlns="http://www.w3.org/2000/svg"><g clip-path="url(#a)"><path d="M8.7 22.78a2.2 2.2 0 0 0 2.74-.77" stroke="#000" stroke-width=".48"/><rect x="9.94" y="20.22" width="11.84" height="3.36" rx="1.04" transform="rotate(-30 9.94 20.22)" fill="#F15152" stroke="#0E1821" stroke-width=".48"/><path d="m24.55 13.7-.63-1.1a.64.64 0 0 1 .24-.87l2.63-1.52c.3-.17.7-.07.88.24l.62 1.08c.09.15.11.33.07.49l-.56 2.08a.64.64 0 0 1-.78.45l-2.08-.56a.64.64 0 0 1-.39-.3ZM5.43 24.74l-.63-1.1a.64.64 0 0 1 .24-.87l2.5-1.44c.3-.17.69-.07.87.24l.63 1.09c.08.14.1.31.06.47l-.5 2.02a.64.64 0 0 1-.8.46l-1.99-.58a.64.64 0 0 1-.38-.29Z" fill="#fff" stroke="#0E1821" stroke-width=".48"/><path d="m30.13 7.36-29.1 16.8a.64.64 0 0 0 .64 1.1l.8-.45a7.7 7.7 0 0 1 2.17-.85l.15-.03a8.6 8.6 0 0 0 2.45-.95L26 12.15a8.9 8.9 0 0 0 2.06-1.65l.1-.11a7.7 7.7 0 0 1 1.82-1.47l.8-.45a.64.64 0 0 0-.65-1.11Z" fill="#4878A6" stroke="#0E1821" stroke-width=".48"/><circle cx="28.38" cy="16.01" r="1.36" transform="rotate(-30 28.38 16)" fill="#fff"/><mask id="b" fill="#fff"><path d="M31.24 14.35a3.3 3.3 0 1 1-5.72 3.31 3.3 3.3 0 0 1 5.72-3.3Zm-3.8 2.2a1.08 1.08 0 1 0 1.87-1.08 1.08 1.08 0 0 0-1.86 1.08Z"/></mask><path d="M31.24 14.35a3.3 3.3 0 1 1-5.72 3.31 3.3 3.3 0 0 1 5.72-3.3Zm-3.8 2.2a1.08 1.08 0 1 0 1.87-1.08 1.08 1.08 0 0 0-1.86 1.08Z" fill="#0E1821" stroke="#0E1821" stroke-width=".96" mask="url(#b)"/><circle cx="9.18" cy="27.1" r="1.36" transform="rotate(-30 9.18 27.1)" fill="#fff"/><mask id="c" fill="#fff"><path d="M12.04 25.44a3.3 3.3 0 1 1-5.73 3.3 3.3 3.3 0 0 1 5.73-3.3Zm-3.8 2.2a1.08 1.08 0 1 0 1.87-1.08 1.08 1.08 0 0 0-1.86 1.07Z"/></mask><path d="M12.04 25.44a3.3 3.3 0 1 1-5.73 3.3 3.3 3.3 0 0 1 5.73-3.3Zm-3.8 2.2a1.08 1.08 0 1 0 1.87-1.08 1.08 1.08 0 0 0-1.86 1.07Z" fill="#0E1821" stroke="#0E1821" stroke-width=".96" mask="url(#c)"/><circle cx="9.12" cy="8.32" r="5.52" fill="#fff" stroke="#0E1821" stroke-width=".48"/><path d="M7.85 4.5a.26.26 0 0 1 .25-.18h2.04a.26.26 0 0 1 .26.22l-.01.12-.91 2.72h1.94a.26.26 0 0 1 .26.28c0 .05-.02.1-.05.13l-3.59 4.6a.26.26 0 0 1-.44-.07.25.25 0 0 1 0-.17l.92-2.99h-1.7a.26.26 0 0 1-.26-.2l.01-.12L7.85 4.5Zm.44.33L7.16 8.65h1.7a.26.26 0 0 1 .26.22l-.01.11-.61 1.99 2.4-3.08H9.12a.26.26 0 0 1-.25-.22v-.12l.92-2.72h-1.5Z" fill="#F15152"/></g><defs><clipPath id="a"><path fill="#fff" d="M0 0h32v32H0z"/></clipPath></defs></svg><svg id="electric-vehicles" viewBox="0 0 32 32" fill="none" xmlns="http://www.w3.org/2000/svg"><rect x="2.32" y="24.4" width="27.69" height="2.56" rx="1.28" fill="#2A5275" stroke="#0E1821" stroke-width=".48"/><path d="M4.56 26.97h5.28v2.8c0 .48-.4.88-.88.88H5.44a.88.88 0 0 1-.88-.88v-2.8Zm17.92 0h5.29v2.8c0 .48-.4.88-.88.88h-3.53a.88.88 0 0 1-.88-.88v-2.8Z" fill="#0E1821" stroke="#0E1821" stroke-width=".48"/><path d="M2.96 19.36a3.28 3.28 0 0 1 3.28-3.28H26.1a3.28 3.28 0 0 1 3.28 3.28v3.52c0 .84-.68 1.52-1.52 1.52H4.48c-.84 0-1.52-.68-1.52-1.52v-3.52Z" fill="#4878A6" stroke="#0E1821" stroke-width=".48"/><path d="M22.23 8.32H10.1a3.2 3.2 0 0 0-3.07 2.32l-1.58 5.52H26.9l-1.58-5.52a3.2 3.2 0 0 0-3.08-2.32Z" fill="#4878A6" stroke="#0E1821" stroke-width=".48" stroke-linecap="round" stroke-linejoin="round"/><path d="M22.86 10.16H9.46a.8.8 0 0 0-.76.56l-1.74 5.36h18.4l-1.74-5.36a.8.8 0 0 0-.76-.56Z" fill="#fff" stroke="#0E1821" stroke-width=".48" stroke-linecap="round" stroke-linejoin="round"/><path d="M6.3 13.28h-.7a3.84 3.84 0 0 1-3.84-3.84V6.72A3.84 3.84 0 0 1 5.6 2.88h18.88" stroke="#0E1821" stroke-width=".48"/><path d="M25.2 2.16V3.6h-.72a.24.24 0 0 1-.24-.24V2.4c0-.13.11-.24.24-.24h.73Zm2.25-.8V4.4h-2a.24.24 0 0 1-.24-.24V1.6c0-.13.1-.24.24-.24h2Z" fill="#F15152" stroke="#0E1821" stroke-width=".48"/> <path stroke="#0E1821" stroke-width=".48" stroke-linecap="round" d="M27.77 2h.96m-.96 1.76h.96" /><circle cx="7.12" cy="20.72" r="2.24" fill="#FBB13C" stroke="#0E1821" stroke-width=".48"/><circle cx="25.21" cy="20.72" r="2.24" fill="#FBB13C" stroke="#0E1821" stroke-width=".48"/><path d="M15.29 17.73a.17.17 0 0 1 .17-.13h1.4a.18.18 0 0 1 .15.08.17.17 0 0 1 .02.15l-.62 1.87h1.34a.18.18 0 0 1 .14.29l-2.47 3.15a.18.18 0 0 1-.3-.04.17.17 0 0 1 0-.12l.63-2.05h-1.17a.18.18 0 0 1-.17-.14v-.09l.88-2.97Zm.3.22-.78 2.63H16a.18.18 0 0 1 .17.14v.09l-.43 1.36 1.66-2.12h-1.23a.18.18 0 0 1-.16-.23l.62-1.87H15.6Z" fill="#fff"/></svg><svg id="accessories" viewBox="0 0 32 32" fill="none" xmlns="http://www.w3.org/2000/svg"><path d="M3.6 15.2a12.4 12.4 0 1 1 24.8 0v5.84c0 .58-.46 1.04-1.03 1.04h-.4v-6.04c0-6.49-4.45-11.8-10.97-11.8-6.52 0-10.96 5.31-10.96 11.8v6.04h-.4c-.57 0-1.04-.46-1.04-1.04V15.2Z" fill="#4878A6" stroke="#0E1821" stroke-width=".48"/><path d="M4.88 19.28c0-.88.72-1.6 1.6-1.6h1.6v8.16h-1.6a1.6 1.6 0 0 1-1.6-1.6v-4.96Zm22.24 0c0-.88-.72-1.6-1.6-1.6h-1.6v8.16h1.6c.88 0 1.6-.72 1.6-1.6v-4.96Z" fill="#4878A6" stroke="#0E1821" stroke-width=".48"/><rect x="7.12" y="16.08" width="4.32" height="11.36" rx="2.16" fill="#2A5275" stroke="#0E1821" stroke-width=".48"/><rect x="-.24" y=".24" width="4.32" height="11.36" rx="2.16" transform="matrix(-1 0 0 1 24.64 15.84)" fill="#2A5275" stroke="#0E1821" stroke-width=".48"/></svg><svg id="smart-toys" viewBox="0 0 32 32" fill="none" xmlns="http://www.w3.org/2000/svg"><path d="M5.68 10.96c0-1.1.9-2 2-2h1.76a2 2 0 0 1 2 2v2H5.68v-2Z" fill="#2A5275" stroke="#0E1821" stroke-width=".48"/><path d="M14.48 12.4c0-.57.47-1.04 1.04-1.04h.96c.58 0 1.04.47 1.04 1.04v1.04h-3.04V12.4Z" fill="#4878A6" stroke="#0E1821" stroke-width=".48"/><path d="M20.56 10.96c0-1.1.9-2 2-2h1.76a2 2 0 0 1 2 2v2h-5.76v-2Z" fill="#2A5275" stroke="#0E1821" stroke-width=".48"/><path d="M2.24 26.38v-7.86c0-4.15 3.2-8.32 7.2-7.24.92.25 1.8.8 2.45 1.26.67.5 1.46.82 2.28.82h3.66c.83 0 1.62-.33 2.3-.82a7.83 7.83 0 0 1 2.43-1.26c4-1.08 7.2 3.1 7.2 7.24v7.86a3.87 3.87 0 0 1-3.86 3.87c-1.8 0-3.46-1-4.3-2.6l-1.84-3.54a2.28 2.28 0 0 0-2.02-1.23h-3.47c-.85 0-1.63.48-2.03 1.23l-1.84 3.54a4.84 4.84 0 0 1-4.29 2.6 3.87 3.87 0 0 1-3.87-3.87Z" fill="#fff" stroke="#0E1821" stroke-width=".48" stroke-linecap="round" stroke-linejoin="round"/><path d="M12.8 17.52a4.32 4.32 0 1 1-8.64 0 4.32 4.32 0 0 1 8.64 0Zm-6.5 0a2.19 2.19 0 1 0 4.37 0 2.19 2.19 0 0 0-4.38 0Z" fill="#2A5275"/><circle cx="8.48" cy="17.52" r="2.16" stroke="#0E1821" stroke-width=".48"/><circle cx="8.48" cy="17.52" r="4.4" stroke="#0E1821" stroke-width=".48"/><circle cx="20.32" cy="17.52" r="1.36" fill="#F15152" stroke="#0E1821" stroke-width=".48"/><circle cx="23.45" cy="20.64" r="1.36" transform="rotate(-90 23.45 20.64)" fill="#F15152" stroke="#0E1821" stroke-width=".48"/><circle cx="26.57" cy="17.52" r="1.36" fill="#F15152" stroke="#0E1821" stroke-width=".48"/><circle cx="23.45" cy="14.4" r="1.36" transform="rotate(-90 23.45 14.4)" fill="#F15152" stroke="#0E1821" stroke-width=".48"/><path d="M16 11.36V9.52c0-.88.72-1.6 1.6-1.6h3c.87 0 1.56-.7 1.56-1.56v0c0-.86-.7-1.56-1.56-1.56h-3A1.6 1.6 0 0 1 16 3.2V1.76" stroke="#0E1821" stroke-width=".48" stroke-linecap="round" stroke-linejoin="round"/><path stroke="#0E1821" stroke-width=".48" stroke-linecap="round" d="M14.96 16.08h2.08M14 20.88h1.12m1.76 0H18"/></svg><svg id="smart-watch" viewBox="0 0 32 32" fill="none" xmlns="http://www.w3.org/2000/svg"><rect x="5.84" y="4.4" width="20.32" height="23.04" rx="3.28" fill="#4878A6" stroke="#0E1821" stroke-width=".48"/><rect x="7.76" y="6" width="16.48" height="19.68" rx="1.68" fill="#fff" stroke="#0E1821" stroke-width=".48"/><path d="M15.13 8.13A.17.17 0 0 1 15.3 8h1.4a.18.18 0 0 1 .18.15v.08l-.63 1.87h1.34a.18.18 0 0 1 .16.1.17.17 0 0 1-.02.18l-2.47 3.15a.18.18 0 0 1-.3-.15l.63-2.05h-1.17a.18.18 0 0 1-.17-.15v-.08l.88-2.97Zm.3.22-.78 2.63h1.18a.18.18 0 0 1 .17.22l-.43 1.37 1.66-2.12H16a.18.18 0 0 1-.14-.07.17.17 0 0 1-.02-.16l.62-1.87h-1.03Z" fill="#F15152"/><circle cx="11.84" cy="17.6" r="1.2" fill="#FBB13C" stroke="#0E1821" stroke-width=".48"/><circle cx="11.84" cy="21.76" r="1.2" fill="#FBB13C" stroke="#0E1821" stroke-width=".48"/><circle cx="16" cy="17.6" r="1.2" fill="#FBB13C" stroke="#0E1821" stroke-width=".48"/><circle cx="16" cy="21.76" r="1.2" fill="#FBB13C" stroke="#0E1821" stroke-width=".48"/><circle cx="20.16" cy="17.6" r="1.2" fill="#FBB13C" stroke="#0E1821" stroke-width=".48"/><circle cx="20.16" cy="21.76" r="1.2" fill="#FBB13C" stroke="#0E1821" stroke-width=".48"/><path d="M10.4 1.52C10.52.87 11.08.4 11.74.4h8.36c.66 0 1.23.47 1.34 1.12l.52 2.88H9.89l.51-2.88Zm0 28.8c.12.65.68 1.13 1.34 1.13h8.36c.66 0 1.23-.48 1.34-1.13l.52-2.87H9.89l.51 2.88Z" fill="#2A5275" stroke="#0E1821" stroke-width=".48"/></svg><svg id="icon-more" viewBox="0 0 48 48" fill="none" xmlns="http://www.w3.org/2000/svg"><circle cx="24" cy="24" r="21" stroke="#0E1821" stroke-width="2"/><circle cx="13" cy="24" r="3" fill="#F15152"/><circle cx="24" cy="24" r="3" fill="#F15152"/><circle cx="35" cy="24" r="3" fill="#F15152"/></svg></svg>
