<svg xmlns="http://www.w3.org/2000/svg"><style>:root>svg{display: none}:root>svg:target{display:block}</style><svg id="icon-fb" viewBox="0 0 17 17" fill="#4878A6" xmlns="http://www.w3.org/2000/svg"><path d="M17 2.82A2.9 2.9 0 0 0 14.18 0H2.82A2.9 2.9 0 0 0 0 2.82v11.36A2.9 2.9 0 0 0 2.82 17h5.72v-6.43H6.43V7.75h2.11V6.61c0-1.94 1.41-3.62 3.18-3.62H14v2.82h-2.3c-.26 0-.52.27-.52.8v1.14H14v2.82h-2.82V17h3A2.9 2.9 0 0 0 17 14.18V2.82Z"/></svg><svg id="icon-inst" viewBox="0 0 17 17" fill="#4878A6" xmlns="http://www.w3.org/2000/svg"><path d="M14.58 0H2.42A2.37 2.37 0 0 0 0 2.42v12.16A2.37 2.37 0 0 0 2.42 17h12.16A2.37 2.37 0 0 0 17 14.58V2.42A2.37 2.37 0 0 0 14.58 0ZM8.5 13.6c2.81 0 5.1-2.22 5.1-4.9 0-.46-.07-.98-.2-1.38h1.44v6.93c0 .33-.26.66-.65.66H2.8a.66.66 0 0 1-.65-.66v-7h1.5A4.98 4.98 0 0 0 8.5 13.6Zm0-1.96a3.22 3.22 0 0 1-3.27-3.2c0-1.77 1.44-3.2 3.27-3.2a3.22 3.22 0 0 1 3.27 3.2c0 1.83-1.44 3.2-3.27 3.2Zm6.28-7c0 .4-.33.72-.72.72h-1.83a.73.73 0 0 1-.72-.72V2.88c0-.4.32-.72.72-.72h1.83c.39 0 .72.32.72.72v1.76Z"/></svg><svg id="icon-tw" viewBox="0 0 20 16" fill="#4878A6" xmlns="http://www.w3.org/2000/svg"><path d="M19.6 1.9c-.7.3-1.5.5-2.3.6.8-.5 1.5-1.3 1.8-2.2-.8.5-1.6.8-2.6 1C15.8.5 14.7 0 13.6 0a4.01 4.01 0 0 0-3.9 4.9C6.4 4.7 3.4 3.1 1.4.7c-.3.6-.5 1.3-.5 2 0 1.4.7 2.6 1.8 3.3C2 6 1.4 5.8.9 5.5c0 1.9 1.4 3.6 3.2 3.9-.3.1-.7.1-1.1.1-.3 0-.5 0-.8-.1A4 4 0 0 0 6 12.2a7.96 7.96 0 0 1-5 1.7c-.3 0-.6 0-1-.1 1.8 1.1 3.9 1.8 6.2 1.8 7.4 0 11.4-6.1 11.4-11.4v-.5c.8-.3 1.5-1 2-1.8Z"/></svg><svg id="icon-vk" viewBox="0 0 21 13" fill="#4878A6" xmlns="http://www.w3.org/2000/svg"><path d="M20.8 11.12c0-.09-.08-.09-.08-.17a9.75 9.75 0 0 0-2.07-2.4c-.5-.42-.75-.76-.92-.92-.24-.33-.24-.58-.16-.91a7.1 7.1 0 0 1 1-1.42c.33-.41.5-.66.74-.91 1.25-1.66 1.83-2.74 1.66-3.24l-.08-.08C20.8.99 20.72.9 20.56.9a.96.96 0 0 0-.67 0h-3.73l-.09.09c-.08.08-.08.08-.08.16-.33.92-.75 1.66-1.16 2.5-.25.4-.5.82-.75 1.16-.25.33-.41.58-.58.74-.17.17-.33.25-.42.42-.08.08-.24.16-.24.08-.09 0-.17 0-.17-.08l-.25-.25c-.08-.08-.08-.25-.17-.42V1.15c0-.08-.08-.25-.08-.33l-.25-.25C11.84.5 11.67.5 11.6.41a7.45 7.45 0 0 0-1.5-.17 7.9 7.9 0 0 0-2.57.25c-.16.08-.33.16-.41.33-.17.17-.17.25-.09.25.42.08.75.25.92.5l.08.16c.08.09.08.25.17.5.08.25.08.5.08.83V4.4c0 .42-.08.66-.08.91s-.09.42-.17.5c-.08.17-.08.25-.17.25 0 0 0 .08-.08.08s-.16.09-.33.09a.63.63 0 0 1-.33-.17 1 1 0 0 1-.42-.41 2.9 2.9 0 0 1-.5-.75c-.16-.33-.41-.67-.58-1.16l-.16-.34c-.09-.16-.25-.5-.42-.9-.16-.42-.33-.76-.5-1.17A1.15 1.15 0 0 0 4.29 1H4.2S4.12.9 4.04.9c-.09 0-.17-.08-.25-.08h-3C.48.82.3.9.23.99l-.09.08v.17c0 .08 0 .16.09.33.41 1 .91 1.99 1.4 2.99.5.91 1 1.74 1.34 2.32.41.58.74 1.16 1.16 1.66.41.5.66.83.75 1l.33.33.25.25c.16.17.41.41.74.66.34.25.75.5 1.17.75.41.25.91.42 1.4.58.59.17 1.09.25 1.59.17h1.24c.25 0 .42-.09.58-.25l.08-.08c0-.09.09-.09.09-.17v-.33c0-.33 0-.58.08-.83s.08-.42.17-.58c.08-.17.16-.25.25-.34l.16-.16h.08c.17-.09.42 0 .59.16.25.17.5.42.66.67.17.25.42.5.75.83.33.33.58.58.74.66l.25.17c.17.08.34.16.58.25.25.08.42.08.59.08l2.82-.08c.25 0 .5-.09.66-.17.17-.08.25-.16.25-.33v-.33c-.16-.17-.16-.25-.16-.33Z"/></svg></svg>
