<svg xmlns="http://www.w3.org/2000/svg" viewBox="0 0 32 32" style="enable-background:new 0 0 32 32" xml:space="preserve">
  <path d="m5.2 8.4 4.6-2.6L16 2.3l6.2 3.5 6.2 3.5v4.1l-3.6-2.1-8.8-5-7.2 4.1-3.6-2zm-1.6 2.8v4.2l12.7 7.2 3.5-2.2-16.2-9.2z" style="fill-rule:evenodd;clip-rule:evenodd;fill:#4878a6"/>
  <path d="m26.8 24.3-4.6 2.6-6.2 3.6L9.8 27l-6.2-3.5v-4.1l3.6 2 8.8 5 7.2-4.1 3.6 2zM19 12l-3-1.7-3.5 2 2.2 1.3 12.7 7.2 1 .6v-4l-1-.6c.1 0-8.4-4.8-8.4-4.8z" style="fill-rule:evenodd;clip-rule:evenodd;fill:#2a5275"/>
</svg>
